<?xml version="1.0" standalone="no"?>
<!DOCTYPE svg PUBLIC "-//W3C//DTD SVG 20010904//EN"
 "http://www.w3.org/TR/2001/REC-SVG-20010904/DTD/svg10.dtd">
<svg version="1.0" xmlns="http://www.w3.org/2000/svg"
 width="414.000000pt" height="398.000000pt" viewBox="0 0 414.000000 398.000000"
 preserveAspectRatio="xMidYMid meet">
<metadata>
Created by potrace 1.16, written by Peter Selinger 2001-2019
</metadata>
<g transform="translate(0.000000,398.000000) scale(0.100000,-0.100000)"
fill="#000000" stroke="none">
<path d="M3044 3182 c-44 -35 -109 -62 -157 -67 -9 -1 -23 -7 -29 -13 -9 -9
-7 -12 9 -12 35 0 36 -18 2 -35 -21 -11 -28 -20 -21 -27 7 -7 17 -6 32 2 19
10 22 10 17 -1 -3 -8 -8 -22 -12 -31 -4 -11 -3 -18 4 -18 7 0 14 7 18 16 4 10
13 14 29 10 12 -3 26 -1 29 5 4 6 13 8 20 5 9 -3 16 5 20 23 3 16 19 50 35 75
16 25 25 46 20 46 -6 0 -10 -3 -10 -7 -1 -5 -12 -21 -25 -38 l-25 -30 0 26 c0
26 38 62 65 62 6 0 19 11 28 24 26 34 6 28 -49 -15z"/>
<path d="M890 2615 c-7 -8 -16 -15 -21 -15 -5 0 -23 -15 -41 -34 -18 -19 -82
-69 -142 -111 -84 -60 -104 -70 -88 -47 25 35 20 43 -22 35 -29 -6 -30 -5 -16
12 14 17 13 17 -5 8 -32 -18 -111 -96 -119 -118 -6 -16 -5 -18 5 -7 7 6 22 12
33 12 12 1 39 7 61 15 l40 14 -65 -60 c-36 -32 -71 -57 -77 -54 -7 2 -13 -1
-13 -7 0 -6 -46 -57 -102 -114 -56 -57 -100 -106 -97 -108 2 -3 72 59 154 137
83 78 174 159 202 180 28 21 53 41 55 46 2 4 46 39 98 78 95 70 191 152 179
153 -4 0 -12 -7 -19 -15z"/>
<path d="M2066 2502 c-6 -18 -11 -20 -21 -12 -9 8 -14 7 -19 -5 -3 -8 -1 -15
5 -15 6 0 9 -6 6 -12 -2 -7 -12 -12 -22 -10 -10 2 -14 -1 -10 -7 3 -7 -3 -11
-16 -11 -20 0 -21 -4 -17 -45 5 -43 5 -44 -11 -26 -14 15 -18 16 -29 5 -7 -8
-20 -14 -30 -14 -9 -1 -29 -17 -44 -37 -21 -28 -25 -40 -17 -54 11 -21 3 -63
-19 -96 -15 -24 -12 -67 11 -130 8 -25 8 -36 0 -44 -9 -9 -16 -3 -28 22 -8 19
-12 25 -9 14 4 -11 9 -56 12 -100 l6 -80 7 57 c4 37 16 72 37 105 69 107 127
221 142 278 12 44 20 59 32 57 9 -1 19 5 22 14 8 21 -2 33 -13 16 -5 -9 -11
-5 -19 12 -10 22 -9 25 8 23 10 -1 16 -5 14 -9 -3 -4 2 -8 10 -8 9 0 16 -6 16
-12 0 -7 6 -3 14 8 12 16 12 30 2 79 -10 49 -14 56 -20 37z"/>
<path d="M2619 1700 c-178 -176 -175 -173 -229 -167 -42 5 -54 2 -77 -16 -45
-36 -81 -51 -95 -40 -19 14 -74 8 -93 -11 -20 -20 -44 -21 -51 -1 -4 8 -10 12
-15 9 -5 -3 -7 -10 -4 -15 4 -5 -2 -6 -12 -2 -10 3 -15 2 -11 -2 5 -5 -1 -15
-13 -23 -13 -9 -20 -24 -19 -41 4 -61 1 -71 -24 -71 -19 0 -56 -35 -56 -53 0
-11 154 -12 297 -1 l82 5 -19 -48 c-10 -26 -28 -97 -40 -158 -23 -115 -37
-150 -67 -159 -25 -8 -43 -51 -49 -116 -5 -47 -3 -58 15 -78 21 -21 23 -21 52
-7 39 21 50 51 38 106 -24 107 55 463 108 483 11 5 12 -2 7 -32 -6 -32 -5 -35
7 -25 8 7 16 31 18 55 3 54 35 108 64 108 29 0 51 15 43 29 -5 7 1 10 16 8 20
-2 23 2 20 26 -3 27 13 38 21 15 6 -21 33 7 42 45 11 44 13 50 14 65 0 7 5 11
10 8 5 -3 12 13 15 36 4 26 20 58 43 86 19 24 34 44 32 45 -2 1 -34 -27 -70
-63z"/>
<path d="M3458 1730 c12 -14 22 -28 22 -31 0 -3 22 -28 49 -57 77 -82 179
-271 202 -372 4 -19 17 -62 29 -95 11 -32 25 -101 32 -152 12 -98 21 -124 37
-108 12 13 -28 204 -67 321 -17 49 -53 136 -81 193 -28 57 -51 111 -51 119 0
9 -3 12 -6 9 -4 -3 -19 10 -34 31 -15 20 -56 67 -91 103 -35 36 -54 54 -41 39z"/>
<path d="M645 1288 c-11 -13 -18 -29 -17 -37 2 -7 -1 -11 -6 -7 -15 9 -121
-358 -107 -372 9 -9 21 13 40 75 9 29 20 51 24 48 5 -2 6 7 3 20 -3 16 1 27
11 31 12 4 15 14 10 35 -4 19 -1 29 6 29 7 0 11 10 9 23 -3 26 27 76 35 55 2
-7 6 17 8 55 2 37 4 67 4 67 0 0 -9 -10 -20 -22z"/>
</g>
</svg>
