<svg width="41" height="31" viewBox="0 0 41 31" fill="none" xmlns="http://www.w3.org/2000/svg">
<path d="M3.50665 7.55054H9.68618C10.0098 7.55054 10.2721 7.28827 10.2721 6.9646C10.2721 6.64093 10.0098 6.37866 9.68618 6.37866H3.50665C3.18306 6.37866 2.92072 6.64093 2.92072 6.9646C2.92072 7.28827 3.18298 7.55054 3.50665 7.55054Z" fill="#09A66D"/>
<path d="M9.4745 10.3713H7.0334C6.70981 10.3713 6.44746 10.6336 6.44746 10.9573C6.44746 11.2809 6.70981 11.5432 7.0334 11.5432H9.4745C9.79809 11.5432 10.0604 11.2809 10.0604 10.9573C10.0604 10.6336 9.79809 10.3713 9.4745 10.3713Z" fill="#09A66D"/>
<path d="M1.05566 14.4347H7.03316C7.35676 14.4347 7.6191 14.1724 7.6191 13.8488C7.6191 13.5251 7.35676 13.2628 7.03316 13.2628H1.05566C0.73207 13.2628 0.469727 13.5251 0.469727 13.8488C0.469727 14.1724 0.73207 14.4347 1.05566 14.4347Z" fill="#09A66D"/>
<path d="M10.2721 24.8223C10.2721 24.4986 10.0098 24.2363 9.68618 24.2363H3.50665C3.18306 24.2363 2.92072 24.4986 2.92072 24.8223C2.92072 25.1459 3.18306 25.4082 3.50665 25.4082H9.68618C10.0098 25.4082 10.2721 25.1459 10.2721 24.8223Z" fill="#09A66D"/>
<path d="M9.4745 20.2438H7.0334C6.70981 20.2438 6.44746 20.506 6.44746 20.8297C6.44746 21.1534 6.70981 21.4156 7.0334 21.4156H9.4745C9.79809 21.4156 10.0604 21.1534 10.0604 20.8297C10.0604 20.506 9.79809 20.2438 9.4745 20.2438Z" fill="#09A66D"/>
<path d="M7.6191 17.9382C7.6191 17.6146 7.35676 17.3523 7.03316 17.3523H1.05566C0.73207 17.3523 0.469727 17.6146 0.469727 17.9382C0.469727 18.2619 0.73207 18.5242 1.05566 18.5242H7.03316C7.35676 18.5242 7.6191 18.2619 7.6191 17.9382Z" fill="#09A66D"/>
<path d="M25.4328 8.84896C25.7565 8.84896 26.0188 8.5867 26.0188 8.26303V7.36865C26.0188 7.04498 25.7565 6.78271 25.4328 6.78271C25.1092 6.78271 24.8469 7.04498 24.8469 7.36865V8.26303C24.8469 8.5867 25.1092 8.84896 25.4328 8.84896Z" fill="#09A66D"/>
<path d="M31.8754 9.4511C31.6465 9.22235 31.2756 9.22235 31.0468 9.4511L30.4144 10.0835C30.1855 10.3124 30.1855 10.6834 30.4144 10.9122C30.6433 11.141 31.0142 11.1409 31.243 10.9122L31.8754 10.2798C32.1042 10.0509 32.1042 9.68001 31.8754 9.4511Z" fill="#09A66D"/>
<path d="M33.0627 15.3075C32.739 15.3075 32.4768 15.5698 32.4768 15.8934C32.4768 16.2171 32.739 16.4794 33.0627 16.4794H33.957C34.2807 16.4794 34.5429 16.2171 34.5429 15.8934C34.5429 15.5698 34.2807 15.3075 33.957 15.3075H33.0627Z" fill="#09A66D"/>
<path d="M31.243 20.8747C31.0141 20.6459 30.6432 20.6459 30.4144 20.8747C30.1855 21.1036 30.1855 21.4745 30.4144 21.7034L31.0468 22.3358C31.2758 22.5646 31.6466 22.5645 31.8755 22.3358C32.1043 22.1069 32.1043 21.7359 31.8755 21.5071L31.243 20.8747Z" fill="#09A66D"/>
<path d="M24.8469 23.5239V24.4182C24.8469 24.7419 25.1092 25.0042 25.4328 25.0042C25.7565 25.0042 26.0188 24.7419 26.0188 24.4182V23.5239C26.0188 23.2003 25.7565 22.938 25.4328 22.938C25.1092 22.938 24.8469 23.2003 24.8469 23.5239Z" fill="#09A66D"/>
<path d="M19.6231 20.8747L18.9907 21.5071C18.7619 21.736 18.7619 22.107 18.9907 22.3358C19.2196 22.5646 19.5906 22.5645 19.8193 22.3358L20.4517 21.7034C20.6805 21.4745 20.6805 21.1035 20.4517 20.8747C20.223 20.6459 19.852 20.6459 19.6231 20.8747Z" fill="#09A66D"/>
<path d="M16.9078 15.3075C16.5842 15.3075 16.3219 15.5698 16.3219 15.8934C16.3219 16.2171 16.5842 16.4794 16.9078 16.4794H17.8022C18.1258 16.4794 18.3881 16.2171 18.3881 15.8934C18.3881 15.5698 18.1258 15.3075 17.8022 15.3075H16.9078Z" fill="#09A66D"/>
<path d="M20.4518 10.0835L19.8194 9.4511C19.5906 9.22235 19.2196 9.22235 18.9908 9.4511C18.762 9.68001 18.762 10.0509 18.9908 10.2798L19.6232 10.9122C19.8521 11.141 20.2231 11.1409 20.4518 10.9122C20.6806 10.6834 20.6806 10.3124 20.4518 10.0835Z" fill="#09A66D"/>
<path d="M28.5836 15.8935C28.5836 15.5698 28.3214 15.3076 27.9977 15.3076H26.0188V10.9573C26.0188 10.6336 25.7565 10.3713 25.4328 10.3713C25.1092 10.3713 24.8469 10.6336 24.8469 10.9573V15.8935C24.8469 16.2172 25.1092 16.4795 25.4328 16.4795H27.9977C28.3213 16.4795 28.5836 16.2172 28.5836 15.8935Z" fill="#09A66D"/>
<path d="M36.5432 15.7968C36.8662 15.7772 37.1122 15.4994 37.0926 15.1765C36.7198 9.02779 31.5983 4.2113 25.4328 4.2113C18.9912 4.2113 13.7506 9.45193 13.7506 15.8936C13.7506 22.3351 18.9912 27.5758 25.4328 27.5758C31.2038 27.5758 36.1281 23.3475 36.9847 17.6416C37.0328 17.3216 36.8123 17.0233 36.4922 16.9752C36.173 16.9273 35.8739 17.1476 35.8258 17.4677C35.0563 22.5938 30.6301 26.404 25.4328 26.404C19.6374 26.404 14.9225 21.689 14.9225 15.8936C14.9225 10.0983 19.6374 5.38326 25.4328 5.38326C30.9797 5.38326 35.5875 9.71615 35.9228 15.2476C35.9423 15.5704 36.2198 15.8155 36.5432 15.7968V15.7968Z" fill="#09A66D"/>
<path d="M25.4332 0.856689C23.3722 0.856689 21.3529 1.28427 19.4943 2.08388H9.15607C8.83247 2.08388 8.57013 2.34614 8.57013 2.66981C8.57013 2.99349 8.83247 3.25575 9.15607 3.25575H17.2899C16.1901 3.96356 15.1777 4.81732 14.2851 5.80294C14.0679 6.04271 14.0861 6.41325 14.326 6.63052C14.5659 6.84778 14.9363 6.82942 15.1536 6.58958C17.7788 3.69099 21.5256 2.02856 25.4332 2.02856C33.0783 2.02856 39.2982 8.24833 39.2982 15.8935C39.2982 23.5386 33.0784 29.7584 25.4332 29.7584C17.788 29.7584 11.5683 23.5386 11.5683 15.8935C11.5683 13.2163 12.333 10.6179 13.7797 8.37896C13.9554 8.10716 13.8774 7.7445 13.6056 7.56888C13.3338 7.39333 12.9711 7.47114 12.7954 7.74302C11.2259 10.1718 10.3964 12.9901 10.3964 15.8935C10.3964 21.1877 13.1468 25.8511 17.2936 28.5312H9.15614C8.83255 28.5312 8.57021 28.7935 8.57021 29.1172C8.57021 29.4408 8.83255 29.7031 9.15614 29.7031H19.4862C21.3112 30.4921 23.3219 30.9303 25.4333 30.9303C33.7245 30.9303 40.47 24.1848 40.47 15.8935C40.47 7.60216 33.7245 0.856689 25.4332 0.856689V0.856689Z" fill="#09A66D"/>
</svg>
